# File created by Blade
# Date/Time:  Tue Apr 07 21:12:38 2015
# Frame Rate: 120.000 fps
#------------------------------------------------------
:FULLY-SPECIFIED
:DEGREES
1371
root -7.362969 22.615921 9.663892 713.461752 -79.685073 -438.658141
Spine -68.459198 -19.011536 6.555184
Head -83.644406 16.909127 7.047892
LeftShoulder 26.518837 135.708161 98.484758
LeftArm 56.468256 61.293119 -281.156198
LeftForeArm 4.340764 0.000000 142.671118
LeftHand -7.038367 -0.000000 7.176170
LeftHandThumb1 -26.253704 0.000000 33.147579
RightShoulder -13.275616 63.956466 -49.395743
RightArm 108.114236 65.324269 111.972991
RightForeArm -30.177710 -0.000000 138.573161
RightHand -6.600465 -0.000000 4.488275
RightHandThumb1 -24.326973 -0.000000 -32.862282
LeftUpLeg 8.998663 5.649410 20.711679
LeftLeg 97.573062 -0.000000 -0.000000
LeftFoot -0.179856 4.004795 41.814022
LeftToeBase 118.603204 -0.000000 -0.000000
RightUpLeg 9.990655 -17.492167 -20.576595
RightLeg 94.787468 -0.000000 -0.000000
RightFoot 36.141022 -6.752657 -4.900038
RightToeBase -50.525450 -0.000000 0.000000
1372
root -7.274983 22.647366 9.669862 713.221803 -79.770443 -438.525551
Spine -68.491033 -18.923510 6.510540
Head -83.913484 17.075962 6.954279
LeftShoulder 25.861846 136.541790 97.933190
LeftArm 54.871344 60.477644 -282.769126
LeftForeArm 4.236862 0.000000 142.325831
LeftHand -6.862517 0.000000 7.138036
LeftHandThumb1 -26.253704 0.000000 33.147579
RightShoulder -13.181903 63.949512 -49.147125
RightArm 108.302442 65.223509 111.930489
RightForeArm -29.984663 0.000000 138.392609
RightHand -6.724276 -0.000000 4.696675
RightHandThumb1 -24.326973 -0.000000 -32.862282
LeftUpLeg 9.343425 5.743246 20.648038
LeftLeg 97.131402 -0.000000 -0.000000
LeftFoot -0.430131 4.311190 42.036034
LeftToeBase 118.386227 -0.000000 -0.000000
RightUpLeg 10.267164 -17.695413 -20.662970
RightLeg 94.520721 -0.000000 -0.000000
RightFoot 35.476667 -7.457209 -5.115923
RightToeBase -49.937254 -0.000000 0.000000
1373
root -7.182771 22.670459 9.671193 713.159304 -79.817121 -438.488159
Spine -68.625541 -18.874299 6.497591
Head -84.166104 17.253856 6.901813
LeftShoulder 25.737730 136.737270 97.927453
LeftArm 54.619594 60.127807 -283.009431
LeftForeArm 4.115716 -0.000000 142.174137
LeftHand -6.942525 -0.000000 6.951091
LeftHandThumb1 -26.253704 0.000000 33.147579
RightShoulder -13.050083 63.880415 -48.860886
RightArm 108.571537 65.145242 111.955258
RightForeArm -29.862537 0.000000 138.214049
RightHand -6.890401 0.000000 4.771664
RightHandThumb1 -24.326973 -0.000000 -32.862282
LeftUpLeg 9.569328 5.800776 20.561236
LeftLeg 96.727715 -0.000000 -0.000000
LeftFoot -0.673614 4.622798 42.153641
LeftToeBase 118.102915 -0.000000 -0.000000
RightUpLeg 10.452336 -17.930971 -20.693460
RightLeg 94.243275 -0.000000 -0.000000
RightFoot 34.923507 -8.027838 -5.219064
RightToeBase -49.560354 -0.000000 0.000000
1374
root -7.089682 22.692420 9.673083 713.052270 -79.861625 -438.419336
Spine -68.745203 -18.828961 6.453077
Head -84.421960 17.453474 6.827860
LeftShoulder 24.527653 138.378516 96.824803
LeftArm 51.348086 58.742003 -286.048401
LeftForeArm 3.585882 0.000000 141.839760
LeftHand -6.864354 -0.000000 6.893125
LeftHandThumb1 -26.253704 0.000000 33.147579
RightShoulder -12.861469 63.851101 -48.539715
RightArm 108.927987 65.145950 112.028328
RightForeArm -29.694301 -0.000000 138.021297
RightHand -6.999033 -0.000000 4.817313
RightHandThumb1 -24.326973 -0.000000 -32.862282
LeftUpLeg 9.791380 5.880860 20.483696
LeftLeg 96.346369 -0.000000 -0.000000
LeftFoot -0.873763 4.984939 42.082833
LeftToeBase 118.000705 -0.000000 -0.000000
RightUpLeg 10.657931 -18.094821 -20.720245
RightLeg 93.934467 -0.000000 -0.000000
RightFoot 34.398276 -8.460966 -5.319093
RightToeBase -49.538682 -0.000000 0.000000
1375
root -6.987972 22.696779 9.675807 713.058005 -79.957475 -438.233327
Spine -69.118049 -18.695632 6.471017
Head -84.660775 17.636399 6.752495
LeftShoulder 22.974726 140.380553 95.403509
LeftArm 48.245939 56.986676 -289.074432
LeftForeArm 3.370687 -0.000000 141.353679
LeftHand -6.848776 -0.000000 7.515035
LeftHandThumb1 -26.253704 0.000000 33.147579
RightShoulder -12.623333 63.714275 -48.189724
RightArm 109.521597 65.117792 112.354321
RightForeArm -29.528582 -0.000000 137.853657
RightHand -7.146453 -0.000000 4.892201
RightHandThumb1 -24.326973 -0.000000 -32.862282
LeftUpLeg 9.761665 6.129463 20.333010
LeftLeg 95.998716 -0.000000 -0.000000
LeftFoot -0.915042 5.443577 42.131927
LeftToeBase 117.775544 -0.000000 -0.000000
RightUpLeg 10.533915 -18.181611 -20.653947
RightLeg 93.699686 -0.000000 -0.000000
RightFoot 33.808462 -8.644321 -5.205177
RightToeBase -49.332148 -0.000000 0.000000
1376
root -6.886792 22.706673 9.678693 713.028864 -80.011722 -437.927448
Spine -69.550738 -18.540079 6.507397
Head -84.849298 17.652400 6.672178
LeftShoulder 25.619122 137.036910 97.721425
LeftArm 54.552420 60.255542 -283.254404
LeftForeArm 5.327334 -0.000000 141.780463
LeftHand -7.379121 -0.000000 7.215349
LeftHandThumb1 -26.253704 0.000000 33.147579
RightShoulder -12.618637 63.587952 -48.228693
RightArm 110.194621 65.179483 112.869154
RightForeArm -29.351698 0.000000 137.663431
RightHand -7.339737 -0.000000 4.952061
RightHandThumb1 -24.326973 -0.000000 -32.862282
LeftUpLeg 9.639266 6.405432 20.145727
LeftLeg 95.645673 -0.000000 -0.000000
LeftFoot -0.933168 5.938138 42.027794
LeftToeBase 117.727407 -0.000000 -0.000000
RightUpLeg 10.373489 -18.272652 -20.598738
RightLeg 93.447073 -0.000000 -0.000000
RightFoot 33.169575 -8.617568 -5.082817
RightToeBase -48.897940 -0.000000 0.000000
1377
root -6.798127 22.728315 9.678296 713.026067 -80.029948 -437.818496
Spine -69.744834 -18.440258 6.499312
Head -85.073721 17.570795 6.596184
LeftShoulder 30.471057 131.081600 102.388239
LeftArm 68.713205 63.787940 -270.676812
LeftForeArm 6.229292 -0.000000 142.079790
LeftHand -7.774900 -0.000000 5.745411
LeftHandThumb1 -26.253704 0.000000 33.147579
RightShoulder -12.853241 63.583098 -48.538897
RightArm 110.659412 65.285780 113.247817
RightForeArm -29.270248 -0.000000 137.488999
RightHand -7.537528 -0.000000 5.210902
RightHandThumb1 -24.326973 -0.000000 -32.862282
LeftUpLeg 9.696251 6.605842 20.059066
LeftLeg 95.312892 -0.000000 -0.000000
LeftFoot -0.901624 6.337252 42.387474
LeftToeBase 117.897621 -0.000000 -0.000000
RightUpLeg 10.449454 -18.246472 -20.570087
RightLeg 93.202034 -0.000000 -0.000000
RightFoot 32.419234 -8.386385 -4.819389
RightToeBase -48.766443 -0.000000 0.000000
1378
root -6.709359 22.746061 9.679179 713.154779 -80.002867 -437.823951
Spine -69.963124 -18.366589 6.555594
Head -85.257285 17.442460 6.608859
LeftShoulder 37.298821 125.012658 109.077369
LeftArm 87.856810 65.705629 -253.237734
LeftForeArm 8.690137 -0.000000 142.289192
LeftHand -8.582348 -0.000000 4.782705
LeftHandThumb1 -26.253704 0.000000 33.147579
RightShoulder -13.052897 63.554835 -48.824402
RightArm 111.279964 65.332526 113.745682
RightForeArm -29.138856 -0.000000 137.302372
RightHand -7.574986 0.000000 5.200839
RightHandThumb1 -24.326973 -0.000000 -32.862282
LeftUpLeg 9.675013 6.806124 19.985850
LeftLeg 95.017877 -0.000000 -0.000000
LeftFoot -0.725096 6.749572 42.663499
LeftToeBase 117.898350 -0.000000 -0.000000
RightUpLeg 10.515394 -18.256651 -20.522106
RightLeg 92.899928 -0.000000 -0.000000
RightFoot 31.922851 -8.070173 -4.759803
RightToeBase -49.077645 -0.000000 0.000000
